<svg xmlns="http://www.w3.org/2000/svg" width="275.53" height="25.2" viewBox="0 0 275.53 25.2"><defs><style>.a{fill:#ebc317;}</style></defs><title>Asset 1</title><path class="a" d="M0,5.11V0H39.78V9.11l-9.4-1.3V5.11H14.76v6.7H30.38v5.11H14.76V25.2H5.36V5.11Z"/><path class="a" d="M43.46,25.2V0h37.4V25.2Zm9.4-5.11H71.47v-15H52.86Z"/><path class="a" d="M83.46,19.58V14l5.37-.9V0h37.4V12.38l-10.87,1.84,12.35,11h-13l-10.26-9.14-6.23,1v8.1H88.83V18.68Zm14.76-8.13,18.62-3.13V5.11H98.22Z"/><path class="a" d="M129.23,10.08V0h40.28V10.08l-9.39-1.3V5.11h-6.05V25.2h-9.4V5.11h-6V8.78Z"/><path class="a" d="M172.59,5.11V0h14.76V25.2H178V5.11Z"/><path class="a" d="M191,5.11V0h14.76V17.64l4.61,2.45h14V0h9.39V25.2H207.8l-11.49-6.12v-14Z"/><path class="a" d="M238.52,25.2V16.92l9.4,1.37v1.8h18.21V16.92l-27.61-4.36V0h37V8.75l-9.4-1.44V5.11H247.92V8.53l27.61,4.36V25.2Z"/></svg>